<svg width="42" height="43" viewBox="0 0 42 43" fill="none" xmlns="http://www.w3.org/2000/svg">
<ellipse cx="20.8856" cy="21.6095" rx="20.8856" ry="21.2476" fill="#EC5161"/>
<g clip-path="url(#clip0_1105_2130)">
<path d="M29.3252 21.2L29.0265 21.1588C28.4721 21.0826 27.9937 20.8451 27.6421 20.4733C25.6527 18.3661 22.7074 18.1407 19.7626 19.8703C16.8178 21.6 15.5371 24.3076 16.3362 27.1139C16.4769 27.6096 16.4398 28.1498 16.2275 28.6764L16.1132 28.9602C15.4423 30.6112 14.9127 31.9161 16.658 33.8413C18.2128 35.5568 20.722 36.1984 22.902 35.4374C23.2865 35.3032 23.6516 35.1332 23.9952 34.9314C24.7096 34.5118 25.3284 33.953 25.8173 33.2786C26.3709 32.5147 27.2224 32.0146 28.1495 31.9087L28.1505 31.909C29.3621 31.7707 30.4993 31.2544 31.4455 30.4193C33.1827 28.8796 33.8911 26.3481 33.208 24.1205C32.4419 21.6205 31.0661 21.4344 29.3252 21.2V21.2Z" fill="white"/>
<path d="M14.985 19.05C16.4119 18.2118 16.7346 16.0541 15.7051 14.24C14.6756 12.4259 12.6774 11.6313 11.2504 12.4694C9.82352 13.3075 9.50083 15.4653 10.5304 17.2794C11.5599 19.0935 13.5581 19.8881 14.985 19.05Z" fill="white"/>
<path d="M21.4537 15.2507C22.8807 14.4126 23.2034 12.2548 22.1738 10.4407C21.1443 8.62663 19.1461 7.83206 17.7192 8.67017C16.2923 9.50829 15.9696 11.666 16.9991 13.4801C18.0286 15.2942 20.0268 16.0888 21.4537 15.2507Z" fill="white"/>
<path d="M13.5 22.613C12.4705 20.7989 10.4723 20.0044 9.04537 20.8425C7.61845 21.6806 7.29575 23.8383 8.32528 25.6524C9.3548 27.4665 11.353 28.2611 12.7799 27.423C14.2068 26.5849 14.5295 24.4271 13.5 22.613Z" fill="white"/>
<path d="M25.9497 10.9137C24.5227 11.7518 24.2 13.9096 25.2296 15.7237C26.2591 17.5378 28.2573 18.3323 29.6842 17.4942C31.1111 16.6561 31.4338 14.4984 30.4043 12.6843C29.3748 10.8702 27.3766 10.0756 25.9497 10.9137Z" fill="white"/>
</g>
<defs>
<clipPath id="clip0_1105_2130">
<rect width="25.6056" height="25.8266" fill="white" transform="matrix(0.862265 -0.506458 0.49357 0.869706 3.44531 17.0539)"/>
</clipPath>
</defs>
</svg>
